# xmcd
# Copyright (C) 1995-1998 Ti Kan
#
# Track frame offsets:
#       150
#       16132
#       32942
#       49240
#       66890
#       80557
#       93115
#
# Disc length: 1473 seconds
#
# Revision: 0
# Processed by: cddbd v1.5.2PL0 Copyright (c) Steve Scherf et al.
# Submitted via: CD-Import v1.0
#
DISCID=5105bf07
DTITLE=Nat King Cole - Prestige Collection
DYEAR=1900
DGENRE=
TTITLE0=When Igrow Too Old To Dream
TTITLE1=Route 66
TTITLE2=What Is There To Say
TTITLE3=You Can Depend On Me
TTITLE4=I Was A Little Lonely
TTITLE5=Two Loves I Have
TTITLE6=Candy
EXTD=
EXTT0=
EXTT1=
EXTT2=
EXTT3=
EXTT4=
EXTT5=
EXTT6=
PLAYORDER=
